<?xml version="1.0" standalone="no"?><!DOCTYPE svg PUBLIC "-//W3C//DTD SVG 1.1//EN" "http://www.w3.org/Graphics/SVG/1.1/DTD/svg11.dtd"><svg t="1535201556687" class="icon" style="" viewBox="0 0 1024 1024" version="1.1" xmlns="http://www.w3.org/2000/svg" p-id="2258" xmlns:xlink="http://www.w3.org/1999/xlink" width="128" height="128"><defs><style type="text/css"></style></defs><path d="M879.496 961.426H145.841c-45.022 0-81.517-36.495-81.517-81.517V146.254c0-45.022 36.495-81.517 81.517-81.517h733.655c45.022 0 81.517 36.495 81.517 81.517v733.655c0 45.022-36.495 81.517-81.517 81.517zM227.358 146.254h-81.517v81.517h81.517v-81.517z m0 122.276h-81.517v81.517h81.517V268.53z m0 122.275h-81.517v81.517h81.517v-81.517z m0 163.035h-81.517v81.517h81.517V553.84z m0 122.276h-81.517v81.517h81.517v-81.517z m0 122.275h-81.517v81.517h81.517v-81.517zM757.22 146.254H268.117v733.655H757.22V146.254z m122.276 0h-81.517v81.517h81.517v-81.517z m0 122.276h-81.517v81.517h81.517V268.53z m0 122.275h-81.517v81.517h81.517v-81.517z m0 163.035h-81.517v81.517h81.517V553.84z m0 122.276h-81.517v81.517h81.517v-81.517z m0 122.275h-81.517v81.517h81.517v-81.517zM471.91 390.805c40.759 0 163.034 81.517 163.034 122.276S512.668 635.357 471.91 635.357s-40.612-40.759-40.612-40.759V431.564s-0.147-40.759 40.612-40.759z" p-id="2259"></path></svg>