<?xml version="1.0" standalone="no"?><!DOCTYPE svg PUBLIC "-//W3C//DTD SVG 1.1//EN" "http://www.w3.org/Graphics/SVG/1.1/DTD/svg11.dtd"><svg t="1535202038152" class="icon" style="" viewBox="0 0 1024 1024" version="1.1" xmlns="http://www.w3.org/2000/svg" p-id="4310" xmlns:xlink="http://www.w3.org/1999/xlink" width="128" height="128"><defs><style type="text/css"></style></defs><path d="M896.4 730.6V236.8c0-6.6-5.4-12-12-12h-744c-6.6 0-12 5.4-12 12v493.8c0 3.3-2.7 6-6 6H70.3c-3.3 0-6 2.7-6 6v51.9c0 3.3 2.7 6 6 6h884c3.3 0 6-2.7 6-6v-51.9c0-3.3-2.7-6-6-6h-51.9c-3.3 0-6-2.7-6-6z m-698-441.8h627.9c3.3 0 6 2.7 6 6v435.7c0 3.3-2.7 6-6 6H198.4c-3.3 0-6-2.7-6-6V294.8c0-3.4 2.7-6 6-6z" p-id="4311"></path><path d="M656.7 485.6l-195.1-122c-9.9-6.2-22.3-6.5-32.5-0.9s-16.5 16.4-16.5 28v246.8c0 11.7 6.4 22.5 16.6 28.1 4.8 2.6 10.1 3.9 15.4 3.9 6 0 12-1.7 17.3-5L657 539.7c9.2-5.9 14.8-16.2 14.7-27.1 0-11-5.7-21.2-15-27z m-180.1 93.5V448.5L579.9 513l-103.3 66.1z" p-id="4312"></path></svg>